<?xml version="1.0" encoding="UTF-8" standalone="no"?>
<svg
   width="176.90282"
   height="63.013237"
   viewBox="0 0 176.90282 63.013237"
   fill="none"
   version="1.1"
   id="svg904"
   sodipodi:docname="logo_engee_wing.svg"
   inkscape:version="1.1.2 (b8e25be833, 2022-02-05)"
   xmlns:inkscape="http://www.inkscape.org/namespaces/inkscape"
   xmlns:sodipodi="http://sodipodi.sourceforge.net/DTD/sodipodi-0.dtd"
   xmlns="http://www.w3.org/2000/svg"
   xmlns:svg="http://www.w3.org/2000/svg">
  <defs
     id="defs908" />
  <sodipodi:namedview
     id="namedview906"
     pagecolor="#ffffff"
     bordercolor="#666666"
     borderopacity="1.0"
     inkscape:pageshadow="2"
     inkscape:pageopacity="0.0"
     inkscape:pagecheckerboard="0"
     showgrid="false"
     fit-margin-top="0"
     fit-margin-left="0"
     fit-margin-right="0"
     fit-margin-bottom="0"
     inkscape:zoom="3.8590426"
     inkscape:cx="38.481048"
     inkscape:cy="18.657478"
     inkscape:window-width="2160"
     inkscape:window-height="1244"
     inkscape:window-x="-11"
     inkscape:window-y="-11"
     inkscape:window-maximized="1"
     inkscape:current-layer="svg904" />
  <path
     d="m 0,62.036735 v -35.6446 l 2.58789,-1.2207 h 15.47853 v 0.2442 l -1.9776,4.1992 h -11.206 v 11.7676 h 13.1836 v 0.2441 l -1.9776,4.1992 h -11.206 v 11.7676 h 17.2607 v 0.2442 l -1.9775,4.1992 z m 23.27152,0.9765 v -26.123 c 0,-3.5156 1.0986,-6.4046 3.2959,-8.667 2.3112,-2.36 5.3222,-3.54 9.0332,-3.54 3.6621,0 6.6731,1.18 9.0332,3.54 2.1972,2.181 3.2959,5.07 3.2959,8.667 v 23.9258 l -4.6387,2.1972 h -0.2441 v -26.123 c 0,-2.181 -0.586,-3.9469 -1.7579,-5.2979 -1.4485,-1.6764 -3.3447,-2.5146 -5.6884,-2.5146 -2.3438,0 -4.2399,0.8382 -5.6885,2.5146 -1.1719,1.351 -1.7578,3.1169 -1.7578,5.2979 v 23.9258 l -4.6387,2.1972 z m 54.082,-21.6308 v 8.9355 c 0,3.5319 -1.0986,6.4209 -3.2959,8.667 -2.3112,2.36 -5.3223,3.5401 -9.0332,3.5401 -3.7109,0 -6.722,-1.1801 -9.0332,-3.5401 -2.1973,-2.2461 -3.2959,-5.1351 -3.2959,-8.667 v -13.4277 c 0,-3.5319 1.0986,-6.4209 3.2959,-8.667 2.3112,-2.36 5.3223,-3.54 9.0332,-3.54 3.8411,0 6.8522,1.18 9.0332,3.54 2.1973,2.36 3.2959,5.0863 3.2959,8.1787 l -4.6387,2.1973 h -0.2441 v -1.709 c 0,-2.181 -0.586,-3.9469 -1.7578,-5.2979 -1.4486,-1.6764 -3.3448,-2.5146 -5.6885,-2.5146 -2.3438,0 -4.2399,0.8382 -5.6885,2.5146 -1.1719,1.351 -1.7578,3.1169 -1.7578,5.2979 v 13.4277 c 0,2.181 0.5859,3.947 1.7578,5.2979 1.4486,1.6764 3.3447,2.5146 5.6885,2.5146 2.3437,0 4.2399,-0.8382 5.6885,-2.5146 1.1718,-1.3509 1.7578,-2.9541 1.7578,-4.8096 v -4.9805 h -8.4961 v -0.2441 l 1.9775,-4.1992 z m 4.7656,20.6543 v -35.6446 l 2.5879,-1.2207 h 15.4784 v 0.2442 l -1.977,4.1992 h -11.2065 v 11.7676 h 13.1835 v 0.2441 l -1.977,4.1992 h -11.2065 v 11.7676 h 17.2605 v 0.2442 l -1.977,4.1992 z m 23.2713,0 v -35.6446 l 2.588,-1.2207 h 15.479 v 0.2442 l -1.978,4.1992 h -11.206 v 11.7676 h 13.184 v 0.2441 l -1.978,4.1992 h -11.206 v 11.7676 h 17.261 v 0.2442 l -1.978,4.1992 z"
     fill="#0055B3"
     id="path892"
     style="fill:#2c0000" />
  <g
     id="g1170"
     transform="translate(0,24.683235)">
    <path
       d="m 158.30142,-10.0773 c -22.768,18.9387 -22.167,18.0599 -21.257,32.6003 0.692,10.3906 0.619,12.0422 -0.655,13.6304 -1.326,1.6518 0.142,1.5139 1.857,-0.2333 1.619,-1.5618 2.007,-2.8905 3.335,-11.1801 1.693,-11.0845 1.636,-11.0791 16.092,-20.8958 11.724,-7.974 14.747,-10.96 17.063,-17.2277 1.456,-3.89619 2.587,-10.05251 2.015,-11.29103 -0.141,-0.280517 -8.412,6.25305 -18.45,14.59723 z"
       fill="#0055B3"
       id="path894"
       style="fill:#8c5000" />
    <path
       d="m 170.56142,-1.4578 c -18.759,11.5711 -22.177,13.8656 -23.279,15.8263 -0.628,1.0457 -0.98,2.0654 -0.853,2.2276 0.178,0.0994 4.707,-1.0806 10.029,-2.7415 11.244,-3.4941 14.484,-5.3075 16.898,-9.3649 1.457,-2.3423 3.678,-9.0514 3.197,-9.4124 -0.116,-0.0471 -2.768,1.4789 -5.992,3.4649 z"
       fill="#0055B3"
       id="path896"
       style="fill:#a46800" />
    <path
       d="m 160.72242,15.5509 c -14.181,4.1012 -18.677,6.8872 -11.492,7.09 17.376,0.5284 22.619,-1.1798 24.908,-8.0804 l 0.919,-2.72 -1.566,0.2146 c -0.925,0.1545 -6.653,1.7056 -12.769,3.4958 z"
       fill="#0055B3"
       id="path898"
       style="fill:#c08400" />
    <path
       d="m 144.48542,25.5772 c -0.861,0.6084 -0.561,0.7385 9.184,3.0932 5.11,1.2605 6.386,1.4044 8.631,0.8769 2.411,-0.5957 6.436,-3.5585 5.628,-4.221 -0.433,-0.3286 -18.141,-0.722 -20.7,-0.4815 -1.081,0.1015 -2.312,0.4282 -2.743,0.7324 z"
       fill="#0055B3"
       id="path900"
       style="fill:#d09c10" />
    <path
       d="m 143.65942,29.8816 c 3.959,3.3829 9.618,6.9695 11.673,7.382 2.511,0.4908 5.459,-0.3312 5.346,-1.5319 -0.068,-0.7204 -15.182,-6.5678 -16.515,-6.4426 -0.666,0.0626 -0.871,0.2636 -0.504,0.5925 z"
       fill="#0055B3"
       id="path902"
       style="fill:#dcb028" />
  </g>
</svg>
