<?xml version="1.0" encoding="UTF-8" standalone="no"?>
<svg
   width="225.89888"
   height="79.602074"
   viewBox="0 0 225.89888 79.602073"
   fill="none"
   version="1.1"
   id="svg3923"
   sodipodi:docname="logo_engee_heart.svg"
   inkscape:version="1.1.2 (b8e25be833, 2022-02-05)"
   xmlns:inkscape="http://www.inkscape.org/namespaces/inkscape"
   xmlns:sodipodi="http://sodipodi.sourceforge.net/DTD/sodipodi-0.dtd"
   xmlns="http://www.w3.org/2000/svg"
   xmlns:svg="http://www.w3.org/2000/svg">
  <defs
     id="defs3927" />
  <sodipodi:namedview
     id="namedview3925"
     pagecolor="#ffffff"
     bordercolor="#666666"
     borderopacity="1.0"
     inkscape:pageshadow="2"
     inkscape:pageopacity="0.0"
     inkscape:pagecheckerboard="0"
     showgrid="false"
     fit-margin-top="10"
     fit-margin-left="10"
     fit-margin-right="10"
     fit-margin-bottom="10"
     inkscape:zoom="1.7331283"
     inkscape:cx="-56.256655"
     inkscape:cy="-65.777012"
     inkscape:window-width="2160"
     inkscape:window-height="1244"
     inkscape:window-x="-11"
     inkscape:window-y="-11"
     inkscape:window-maximized="1"
     inkscape:current-layer="svg3923" />
  <path
     d="M 10,68.583463 V 31.405509 l 2.699217,-1.273214 h 16.144394 v 0.254643 l -2.062572,4.379859 H 15.092875 v 12.273821 h 13.750736 v 0.254601 l -2.062572,4.379953 H 15.092875 v 12.273736 h 18.003336 v 0.254706 l -2.062676,4.379849 z m 29.487733,1.018613 V 42.355164 c 0,-3.666851 1.145861,-6.680136 3.437689,-9.039833 2.410627,-2.461548 5.551265,-3.692328 9.421807,-3.692328 3.819643,0 6.96028,1.23078 9.421807,3.692328 2.291827,2.274816 3.437689,5.288101 3.437689,9.039833 v 24.955084 l -4.838256,2.291828 H 60.113868 V 42.355164 c 0,-2.274827 -0.61121,-4.116716 -1.833421,-5.525753 -1.510918,-1.74855 -3.488692,-2.62282 -5.933218,-2.62282 -2.44463,0 -4.4223,0.87427 -5.933219,2.62282 -1.222314,1.409037 -1.83342,3.250926 -1.83342,5.525753 v 24.955084 l -4.838256,2.291828 z M 101.11143,47.040618 v 9.319904 c 0,3.683946 -1.14586,6.697126 -3.43769,9.039853 -2.41063,2.461631 -5.55116,3.692394 -9.421804,3.692394 -3.870542,0 -7.011179,-1.230763 -9.421807,-3.692394 C 76.538301,63.057648 75.39244,60.044468 75.39244,56.360522 V 42.355164 c 0,-3.683832 1.145861,-6.697106 3.437689,-9.039833 2.410628,-2.461548 5.551265,-3.692328 9.421807,-3.692328 4.006444,0 7.146984,1.23078 9.421804,3.692328 2.29183,2.461558 3.43769,5.305081 3.43769,8.530526 l -4.83825,2.291828 h -0.2546 v -1.782521 c 0,-2.274827 -0.61111,-4.116716 -1.83343,-5.525753 -1.51091,-1.74855 -3.48858,-2.62282 -5.933214,-2.62282 -2.444526,0 -4.4223,0.87427 -5.933218,2.62282 -1.222211,1.409037 -1.833421,3.250926 -1.833421,5.525753 v 14.005358 c 0,2.274826 0.61121,4.116799 1.833421,5.525815 1.510918,1.748518 3.488692,2.622882 5.933218,2.622882 2.444634,0 4.422304,-0.874364 5.933214,-2.622882 1.22232,-1.409016 1.83343,-3.081185 1.83343,-5.016509 v -5.194656 h -8.861606 v -0.254705 l 2.062676,-4.379849 z m 10.18572,21.542845 V 31.405509 l 2.69923,-1.273214 h 16.14418 v 0.254643 l -2.06205,4.379859 h -11.68809 v 12.273821 h 13.75014 v 0.254601 l -2.06205,4.379953 h -11.68809 v 12.273736 h 18.00253 v 0.254706 l -2.06205,4.379849 z m 29.48742,0 V 31.405509 l 2.69934,-1.273214 h 16.1449 v 0.254643 l -2.06309,4.379859 h -11.68808 v 12.273821 h 13.75117 v 0.254601 l -2.06309,4.379953 h -11.68808 v 12.273736 h 18.00356 v 0.254706 l -2.06309,4.379849 z"
     fill="#0055B3"
     id="path3921"
     style="fill:#404040;stroke-width:1.04302" />
  <g
     id="g3678"
     transform="matrix(0.18658446,0,0,0.18658446,284.04813,-39.274696)">
    <path
       id="path2373"
       style="fill:#cc0000;fill-opacity:1;fill-rule:nonzero;stroke:none;stroke-width:0.0592651"
       d="m -505.23828,480.18164 c -5.00089,0.46985 -6.54161,1.97872 -3.78711,4.44727 9.6829,8.27367 20.71945,16.69487 31.73437,24.41601 l 15.33008,-15.47656 c -21.34251,-7.82399 -39.53862,-13.73795 -43.27734,-13.38672 z" />
    <path
       id="path2373-2"
       style="fill:#cc0000;fill-opacity:1;fill-rule:nonzero;stroke:none;stroke-width:0.0478333"
       d="m -519.20475,503.28042 c -4.27059,-1.1949 -6.05568,-0.65379 -4.64192,1.82225 5.10883,8.43472 11.27912,17.37598 17.6725,25.84409 l 15.09391,-11.2237 c -14.8435,-11.65105 -24.93176,-15.54931 -28.12449,-16.44264 z"
       sodipodi:nodetypes="scccs" />
    <path
       id="path2375"
       style="fill:#cc0000;fill-opacity:1;fill-rule:nonzero;stroke:none;stroke-width:0.0592651"
       d="m -461.04492,446.27734 c -9.99199,0.0385 -17.59172,0.20843 -21.19336,0.54688 -8.11041,0.7618 -17.35364,3.21489 -20.58399,5.49805 -6.18725,4.37255 -3.68192,5.61563 60.70313,21.21679 l 26.57422,-26.82812 c -16.78249,-0.29736 -33.04644,-0.48157 -45.5,-0.4336 z" />
    <path
       id="path2377"
       style="fill:#cc0000;fill-opacity:1;fill-rule:nonzero;stroke:none;stroke-width:0.0592651"
       d="m -366.19727,372.82031 c -4.9614,1.43049 -9.68412,2.76385 -14.76171,4.25 -106.43349,30.78142 -140.17572,51.69078 -86.25196,53.21289 26.0603,0.79247 48.42993,0.90086 67.76758,0.17578 l 7.88281,-7.95898 -0.01,-0.0195 c 9.369,-9.54157 16.71707,-21.12167 21.31836,-34.04688 1.78293,-5.01708 3.13975,-10.2384 4.05468,-15.61328 z" />
    <path
       id="path2379"
       style="fill:#cc0000;fill-opacity:1;fill-rule:nonzero;stroke:none;stroke-width:0.0592651"
       d="m -385.58398,298.13281 c -72.38237,45.40837 -89.85142,58.68326 -96.24414,70.0625 -4.71794,7.84847 -7.35629,15.50136 -6.40235,16.71875 1.32847,0.74604 35.3241,-8.11035 75.27344,-20.57617 18.70675,-5.81317 34.32108,-10.98845 47.71094,-15.88281 -1.70481,-18.99535 -9.05439,-36.35295 -20.33789,-50.32227 z" />
    <path
       id="path2381"
       style="fill:#cc0000;fill-opacity:1;fill-rule:nonzero;stroke:none;stroke-width:0.0656922"
       d="m -460.35293,264.08789 c -42.86468,0.97511 -72.98996,23.79599 -91.62315,57.24519 -17.48028,36.95481 -21.97779,66.01375 -18.09702,132.38989 5.55863,89.46153 4.97516,103.68184 -5.2716,117.35601 -10.65657,14.22176 1.14456,13.0334 14.93408,-2.00974 13.01344,-13.44687 16.13032,-24.88486 26.8098,-96.25708 13.60478,-95.4359 13.15108,-95.3909 129.35685,-179.91122 2.21851,-1.6161 3.92049,-2.92505 6.06233,-4.49448 -16.91885,-15.18534 -38.58456,-24.31857 -62.17129,-24.31857 z"
       sodipodi:nodetypes="ccccccccc" />
  </g>
</svg>
