<?xml version="1.0" encoding="UTF-8" standalone="no"?>
<svg
   width="218.55774"
   height="59.508915"
   viewBox="0 0 218.55773 59.508915"
   fill="none"
   version="1.1"
   id="svg3923"
   sodipodi:docname="logo_engee_heart.svg"
   inkscape:version="1.1.2 (b8e25be833, 2022-02-05)"
   xmlns:inkscape="http://www.inkscape.org/namespaces/inkscape"
   xmlns:sodipodi="http://sodipodi.sourceforge.net/DTD/sodipodi-0.dtd"
   xmlns="http://www.w3.org/2000/svg"
   xmlns:svg="http://www.w3.org/2000/svg">
  <defs
     id="defs3927" />
  <sodipodi:namedview
     id="namedview3925"
     pagecolor="#ffffff"
     bordercolor="#666666"
     borderopacity="1.0"
     inkscape:pageshadow="2"
     inkscape:pageopacity="0.0"
     inkscape:pagecheckerboard="0"
     showgrid="false"
     fit-margin-top="0"
     fit-margin-left="0"
     fit-margin-right="0"
     fit-margin-bottom="0"
     inkscape:zoom="3.4662566"
     inkscape:cx="67.075243"
     inkscape:cy="91.741622"
     inkscape:window-width="2160"
     inkscape:window-height="1244"
     inkscape:window-x="-11"
     inkscape:window-y="-11"
     inkscape:window-maximized="1"
     inkscape:current-layer="svg3923" />
  <path
     d="m 0,58.365541 v -40.03416 l 2.906584,-1.371029 h 17.38469 v 0.274206 l -2.221029,4.716343 H 5.484135 v 13.21676 h 14.807139 v 0.27416 l -2.221029,4.716446 H 5.484135 v 13.216667 h 19.386447 v 0.274275 l -2.221142,4.716332 z m 31.753135,1.096868 V 30.122246 c 0,-3.948557 1.233891,-7.193338 3.70179,-9.734321 2.595824,-2.650655 5.977743,-3.975991 10.14564,-3.975991 4.113088,0 7.495006,1.325336 10.145638,3.975991 2.467899,2.449581 3.701792,5.694362 3.701792,9.734321 V 56.99451 l -5.209957,2.467899 h -0.27416 V 30.122246 c 0,-2.449591 -0.658166,-4.432983 -1.974275,-5.95027 -1.626995,-1.882883 -3.756712,-2.824319 -6.389038,-2.824319 -2.63244,0 -4.762045,0.941436 -6.38904,2.824319 -1.316219,1.517287 -1.974273,3.500679 -1.974273,5.95027 V 56.99451 l -5.209956,2.467899 z M 98.111084,35.167661 V 45.20357 c 0,3.966965 -1.23389,7.211634 -3.701795,9.734342 -2.595812,2.650746 -5.977613,3.976062 -10.145632,3.976062 -4.167895,0 -7.549812,-1.325316 -10.145637,-3.976062 -2.467899,-2.522708 -3.701791,-5.767377 -3.701791,-9.734342 V 30.122246 c 0,-3.966843 1.233892,-7.211613 3.701791,-9.734321 2.595825,-2.650655 5.977742,-3.975991 10.145637,-3.975991 4.314248,0 7.696049,1.325336 10.145632,3.975991 2.467905,2.650668 3.701795,5.712645 3.701795,9.185886 l -5.209946,2.467899 h -0.274156 v -1.919464 c 0,-2.449591 -0.658063,-4.432983 -1.974291,-5.95027 -1.626989,-1.882883 -3.756577,-2.824319 -6.389034,-2.824319 -2.632325,0 -4.762042,0.941436 -6.389037,2.824319 -1.316106,1.517287 -1.974274,3.500679 -1.974274,5.95027 V 45.20357 c 0,2.449589 0.658168,4.433072 1.974274,5.950337 1.626995,1.882847 3.756712,2.824385 6.389037,2.824385 2.632457,0 4.762045,-0.941538 6.389034,-2.824385 1.316228,-1.517265 1.974291,-3.317898 1.974291,-5.401904 v -5.593736 h -9.542405 v -0.274274 l 2.221152,-4.716332 z m 10.968246,23.19788 v -40.03416 l 2.90659,-1.371029 h 17.38447 v 0.274206 l -2.22048,4.716343 h -12.58602 v 13.21676 h 14.8065 v 0.27416 l -2.22048,4.716446 h -12.58602 v 13.216667 h 19.38559 v 0.274275 l -2.22048,4.716332 z m 31.75279,0 v -40.03416 l 2.90672,-1.371029 h 17.38523 v 0.274206 l -2.22158,4.716343 h -12.58601 v 13.21676 h 14.80759 v 0.27416 l -2.22158,4.716446 h -12.58601 v 13.216667 h 19.38669 v 0.274275 l -2.22161,4.716332 z"
     fill="#0055B3"
     id="path3921"
     style="fill:#404040;stroke-width:1.12315" />
  <g
     id="g50046"
     transform="translate(46.736298,-118.24382)">
    <path
       id="path2377-0"
       style="fill:#e8cc48;fill-opacity:1;fill-rule:nonzero;stroke:none;stroke-width:0.0111258"
       d="m 171.36367,142.35208 c -0.96891,0.0286 -1.8899,0.0507 -2.88254,0.084 -20.78994,0.63072 -27.90123,2.85831 -18.16689,5.65132 4.70176,1.36015 8.76433,2.4237 12.31447,3.1942 l 1.80478,-1.0794 -9.4e-4,-0.004 c 2.14887,-1.29782 4.02539,-3.06064 5.4652,-5.19622 0.55832,-0.82909 1.04868,-1.71521 1.46585,-2.64988 z" />
    <path
       id="path2379-6"
       style="fill:#e8cc48;fill-opacity:1;fill-rule:nonzero;stroke:none;stroke-width:0.0111258"
       d="m 167.75006,124.63505 c -13.58828,8.52448 -16.86774,11.01656 -18.06784,13.15278 -0.88569,1.47339 -1.38099,2.91006 -1.20191,3.1386 6.65443,-0.41482 17.27996,-0.97351 23.15989,-1.72362 0.90607,-3.34961 -1.77189,-11.94531 -3.89014,-14.56776 z"
       sodipodi:nodetypes="ccccc" />
    <path
       id="path2381-0"
       style="fill:#e8cc48;fill-opacity:1;fill-rule:nonzero;stroke:none;stroke-width:0.0123323"
       d="m 153.71374,118.24382 c -8.04695,0.18306 -13.70235,4.46721 -17.20034,10.7466 -3.28156,6.9375 -4.12587,12.39271 -3.39734,24.85345 1.04352,16.79455 0.93398,19.46412 -0.98963,22.03116 -2.00055,2.66984 0.21486,2.44675 2.80356,-0.37729 2.443,-2.52437 3.02813,-4.67162 5.03298,-18.07027 2.55402,-17.91611 2.46885,-17.90766 24.28407,-33.7746 0.41648,-0.30338 0.73599,-0.54911 1.13807,-0.84374 -3.17616,-2.85073 -7.24345,-4.56531 -11.67137,-4.56531 z"
       sodipodi:nodetypes="ccccccccc" />
    <path
       id="path2377-0-5"
       style="fill:#e8cc48;fill-opacity:1;fill-rule:nonzero;stroke:none;stroke-width:0.00707906"
       d="m 160.20273,153.69228 c -0.61806,-0.0553 -1.20516,-1.0379 -1.83866,-1.09194 -12.28415,-3.8775 -11.77993,-4.67505 -13.4585,3.46892 -1.29533,4.25418 -3.29582,7.72574 -2.6415,10.00015 l 12.93355,-7.97179 -2.6e-4,-0.002 c 1.46509,-0.65258 2.79262,-1.61768 3.87105,-2.84976 0.41827,-0.47837 0.79768,-0.99769 1.1343,-1.55301 z"
       sodipodi:nodetypes="cccccccsc" />
  </g>
</svg>
