<?xml version="1.0" encoding="UTF-8" standalone="no"?>
<svg
   width="218.89162"
   height="60"
   viewBox="0 0 218.89161 60"
   fill="none"
   version="1.1"
   id="svg3923"
   sodipodi:docname="logo_engee_heart.svg"
   inkscape:version="1.1.2 (b8e25be833, 2022-02-05)"
   xmlns:inkscape="http://www.inkscape.org/namespaces/inkscape"
   xmlns:sodipodi="http://sodipodi.sourceforge.net/DTD/sodipodi-0.dtd"
   xmlns="http://www.w3.org/2000/svg"
   xmlns:svg="http://www.w3.org/2000/svg">
  <defs
     id="defs3927" />
  <sodipodi:namedview
     id="namedview3925"
     pagecolor="#ffffff"
     bordercolor="#666666"
     borderopacity="1.0"
     inkscape:pageshadow="2"
     inkscape:pageopacity="0.0"
     inkscape:pagecheckerboard="0"
     showgrid="false"
     fit-margin-top="0"
     fit-margin-left="0"
     fit-margin-right="0"
     fit-margin-bottom="0"
     inkscape:zoom="3.4662566"
     inkscape:cx="131.40978"
     inkscape:cy="115.39827"
     inkscape:window-width="2160"
     inkscape:window-height="1244"
     inkscape:window-x="-11"
     inkscape:window-y="-11"
     inkscape:window-maximized="1"
     inkscape:current-layer="svg3923" />
  <path
     d="m 0,58.903131 v -40.03416 l 2.906584,-1.371029 h 17.38469 v 0.274206 l -2.221029,4.716343 H 5.484135 v 13.21676 h 14.807139 v 0.27416 l -2.221029,4.716446 H 5.484135 v 13.216667 h 19.386447 v 0.274275 l -2.221142,4.716332 z m 31.753135,1.096868 V 30.659836 c 0,-3.948557 1.233891,-7.193338 3.70179,-9.734321 2.595824,-2.650655 5.977743,-3.975991 10.14564,-3.975991 4.113088,0 7.495006,1.325336 10.145638,3.975991 2.467899,2.449581 3.701792,5.694362 3.701792,9.734321 V 57.5321 l -5.209957,2.467899 h -0.27416 V 30.659836 c 0,-2.449591 -0.658166,-4.432983 -1.974275,-5.95027 -1.626995,-1.882883 -3.756712,-2.824319 -6.389038,-2.824319 -2.63244,0 -4.762045,0.941436 -6.38904,2.824319 -1.316219,1.517287 -1.974273,3.500679 -1.974273,5.95027 V 57.5321 l -5.209956,2.467899 z M 98.111084,35.705251 V 45.74116 c 0,3.966965 -1.23389,7.211634 -3.701795,9.734342 -2.595812,2.650746 -5.977613,3.976062 -10.145632,3.976062 -4.167895,0 -7.549812,-1.325316 -10.145637,-3.976062 -2.467899,-2.522708 -3.701791,-5.767377 -3.701791,-9.734342 V 30.659836 c 0,-3.966843 1.233892,-7.211613 3.701791,-9.734321 2.595825,-2.650655 5.977742,-3.975991 10.145637,-3.975991 4.314248,0 7.696049,1.325336 10.145632,3.975991 2.467905,2.650668 3.701795,5.712645 3.701795,9.185886 L 92.901138,32.5793 h -0.274156 v -1.919464 c 0,-2.449591 -0.658063,-4.432983 -1.974291,-5.95027 -1.626989,-1.882883 -3.756577,-2.824319 -6.389034,-2.824319 -2.632325,0 -4.762042,0.941436 -6.389037,2.824319 -1.316106,1.517287 -1.974274,3.500679 -1.974274,5.95027 V 45.74116 c 0,2.449589 0.658168,4.433072 1.974274,5.950337 1.626995,1.882847 3.756712,2.824385 6.389037,2.824385 2.632457,0 4.762045,-0.941538 6.389034,-2.824385 1.316228,-1.517265 1.974291,-3.317898 1.974291,-5.401904 v -5.593736 h -9.542405 v -0.274274 l 2.221152,-4.716332 z m 10.968246,23.19788 v -40.03416 l 2.90659,-1.371029 h 17.38447 v 0.274206 l -2.22048,4.716343 h -12.58602 v 13.21676 h 14.8065 v 0.27416 l -2.22048,4.716446 h -12.58602 v 13.216667 h 19.38559 v 0.274275 l -2.22048,4.716332 z m 31.75279,0 v -40.03416 l 2.90672,-1.371029 h 17.38523 v 0.274206 l -2.22158,4.716343 h -12.58601 v 13.21676 h 14.80759 v 0.27416 l -2.22158,4.716446 h -12.58601 v 13.216667 h 19.38669 v 0.274275 l -2.22161,4.716332 z"
     fill="#0055B3"
     id="path3921"
     style="fill:#404040;stroke-width:1.12315" />
  <g
     id="g3678"
     transform="matrix(0.18772924,0,0,0.18772924,287.45898,-49.577019)"
     style="fill:#e8cc48;fill-opacity:1">
    <path
       id="path2373"
       style="fill:#e8cc48;fill-opacity:1;fill-rule:nonzero;stroke:none;stroke-width:0.0592651"
       d="m -505.23828,480.18164 c -5.00089,0.46985 -6.54161,1.97872 -3.78711,4.44727 9.6829,8.27367 20.71945,16.69487 31.73437,24.41601 l 15.33008,-15.47656 c -21.34251,-7.82399 -39.53862,-13.73795 -43.27734,-13.38672 z" />
    <path
       id="path2373-2"
       style="fill:#e8cc48;fill-opacity:1;fill-rule:nonzero;stroke:none;stroke-width:0.0478333"
       d="m -519.20475,503.28042 c -4.27059,-1.1949 -6.05568,-0.65379 -4.64192,1.82225 5.10883,8.43472 11.27912,17.37598 17.6725,25.84409 l 15.09391,-11.2237 c -14.8435,-11.65105 -24.93176,-15.54931 -28.12449,-16.44264 z"
       sodipodi:nodetypes="scccs" />
    <path
       id="path2375"
       style="fill:#e8cc48;fill-opacity:1;fill-rule:nonzero;stroke:none;stroke-width:0.0592651"
       d="m -461.04492,446.27734 c -9.99199,0.0385 -17.59172,0.20843 -21.19336,0.54688 -8.11041,0.7618 -17.35364,3.21489 -20.58399,5.49805 -6.18725,4.37255 -3.68192,5.61563 60.70313,21.21679 l 26.57422,-26.82812 c -16.78249,-0.29736 -33.04644,-0.48157 -45.5,-0.4336 z" />
    <path
       id="path2377"
       style="fill:#e8cc48;fill-opacity:1;fill-rule:nonzero;stroke:none;stroke-width:0.0592651"
       d="m -366.19727,372.82031 c -4.9614,1.43049 -9.68412,2.76385 -14.76171,4.25 -106.43349,30.78142 -140.17572,51.69078 -86.25196,53.21289 26.0603,0.79247 48.42993,0.90086 67.76758,0.17578 l 7.88281,-7.95898 -0.01,-0.0195 c 9.369,-9.54157 16.71707,-21.12167 21.31836,-34.04688 1.78293,-5.01708 3.13975,-10.2384 4.05468,-15.61328 z" />
    <path
       id="path2379"
       style="fill:#e8cc48;fill-opacity:1;fill-rule:nonzero;stroke:none;stroke-width:0.0592651"
       d="m -385.58398,298.13281 c -72.38237,45.40837 -89.85142,58.68326 -96.24414,70.0625 -4.71794,7.84847 -7.35629,15.50136 -6.40235,16.71875 1.32847,0.74604 35.3241,-8.11035 75.27344,-20.57617 18.70675,-5.81317 34.32108,-10.98845 47.71094,-15.88281 -1.70481,-18.99535 -9.05439,-36.35295 -20.33789,-50.32227 z" />
    <path
       id="path2381"
       style="fill:#e8cc48;fill-opacity:1;fill-rule:nonzero;stroke:none;stroke-width:0.0656922"
       d="m -460.35293,264.08789 c -42.86468,0.97511 -72.98996,23.79599 -91.62315,57.24519 -17.48028,36.95481 -21.97779,66.01375 -18.09702,132.38989 5.55863,89.46153 4.97516,103.68184 -5.2716,117.35601 -10.65657,14.22176 1.14456,13.0334 14.93408,-2.00974 13.01344,-13.44687 16.13032,-24.88486 26.8098,-96.25708 13.60478,-95.4359 13.15108,-95.3909 129.35685,-179.91122 2.21851,-1.6161 3.92049,-2.92505 6.06233,-4.49448 -16.91885,-15.18534 -38.58456,-24.31857 -62.17129,-24.31857 z"
       sodipodi:nodetypes="ccccccccc" />
  </g>
</svg>
